<?xml version="1.0" encoding="utf-8"?>
<!-- Generator: Adobe Illustrator 22.1.0, SVG Export Plug-In . SVG Version: 6.00 Build 0)  -->
<svg version="1.1" id="图层_1" xmlns="http://www.w3.org/2000/svg" xmlns:xlink="http://www.w3.org/1999/xlink" x="0px" y="0px"
	 viewBox="0 0 200 200" style="enable-background:new 0 0 200 200;" xml:space="preserve">
<g>
	<path d="M139.2,48.1c-1.2,0-2.3-0.1-3.5-0.5l-78.4-21c-7.2-1.9-11.5-9.4-9.6-16.6c1.9-7.2,9.4-11.5,16.6-9.6l78.4,21
		c7.2,1.9,11.5,9.4,9.6,16.6C150.7,44.1,145.2,48.1,139.2,48.1z"/>
	<path d="M118,200H82c-27.4,0-49.6-22.3-49.6-49.6V96.2c0-7.5,6.1-13.5,13.5-13.5s13.5,6.1,13.5,13.5v54.1
		c0,12.4,10.1,22.6,22.6,22.6H118c12.4,0,22.6-10.1,22.6-22.6V96.2c0-7.5,6.1-13.5,13.5-13.5s13.5,6.1,13.5,13.5v54.1
		C167.7,177.7,145.4,200,118,200z"/>
	<path d="M181.2,73.7H18.8c-7.5,0-13.5-6.1-13.5-13.5s6.1-13.5,13.5-13.5h162.4c7.5,0,13.5,6.1,13.5,13.5S188.7,73.7,181.2,73.7z"/>
	<path d="M100,163.9c-7.5,0-13.5-6.1-13.5-13.5V96.2c0-7.5,6.1-13.5,13.5-13.5c7.5,0,13.5,6.1,13.5,13.5v54.1
		C113.5,157.8,107.5,163.9,100,163.9z"/>
</g>
</svg>
