<?xml version="1.0" encoding="utf-8"?>
<!-- Generator: Adobe Illustrator 22.1.0, SVG Export Plug-In . SVG Version: 6.00 Build 0)  -->
<svg version="1.1" id="图层_1" xmlns="http://www.w3.org/2000/svg" xmlns:xlink="http://www.w3.org/1999/xlink" x="0px" y="0px"
	 viewBox="0 0 200 200" style="enable-background:new 0 0 200 200;" xml:space="preserve">
<style type="text/css">
	.st0{fill:#5865F2;}
</style>
<path class="st0" d="M169.4,35.6c-12.9-6.1-26.8-10.5-41.3-13c-1.8,3.2-3.9,7.5-5.3,11c-15.4-2.3-30.6-2.3-45.7,0
	c-1.4-3.4-3.6-7.8-5.3-11c-14.5,2.5-28.3,6.9-41.3,13C4.4,75-2.7,113.5,0.8,151.5c17.3,12.9,34.1,20.8,50.6,25.9
	c4.1-5.6,7.7-11.6,10.8-17.9c-6-2.3-11.7-5.1-17.1-8.3c1.4-1.1,2.8-2.2,4.2-3.3c32.9,15.4,68.7,15.4,101.2,0
	c1.4,1.1,2.8,2.2,4.2,3.3c-5.4,3.3-11.1,6.1-17.1,8.3c3.1,6.3,6.7,12.2,10.8,17.8c16.5-5.1,33.3-13,50.6-25.9
	C203.3,107.5,192.1,69.4,169.4,35.6z M66.8,128.1c-9.9,0-18-9.2-18-20.5s7.9-20.5,18-20.5s18.2,9.2,18,20.5
	C84.8,118.9,76.8,128.1,66.8,128.1z M133.2,128.1c-9.9,0-18-9.2-18-20.5s7.9-20.5,18-20.5s18.2,9.2,18,20.5
	C151.2,118.9,143.3,128.1,133.2,128.1z"/>
</svg>
