<?xml version="1.0" encoding="utf-8"?>
<!-- Generator: Adobe Illustrator 22.1.0, SVG Export Plug-In . SVG Version: 6.00 Build 0)  -->
<svg version="1.1" id="图层_1" xmlns="http://www.w3.org/2000/svg" xmlns:xlink="http://www.w3.org/1999/xlink" x="0px" y="0px"
	 viewBox="0 0 200 200" style="enable-background:new 0 0 200 200;" xml:space="preserve">
<style type="text/css">
	.st0{fill:#EA4335;}
	.st1{fill:#FBBC05;}
	.st2{fill:#34A853;}
	.st3{fill:#4285F4;}
</style>
<path class="st0" d="M100,42.5c13,0,25,4.3,34.6,11.6l35.3-25.6C151.9,10.9,127.2,0,100,0C60.6,0,26.5,22.8,10.2,55.9l35.3,25.6
	C53.3,58.8,74.7,42.5,100,42.5z"/>
<path class="st1" d="M10.2,144.1C3.7,130.8,0,115.8,0,100s3.7-30.8,10.2-44.1l35.3,25.6c-2,5.8-3.1,12.1-3.1,18.6s1.1,12.7,3.1,18.5
	L10.2,144.1z"/>
<path class="st2" d="M100,157.5c-25.3,0-46.7-16.3-54.4-39l-35.3,25.6C26.5,177.2,60.6,200,100,200c27.3,0,51.9-10.9,70-28.6
	l-35.3-25.5C125,153.2,113,157.5,100,157.5z"/>
<path class="st3" d="M100,80v40h53.9c-3.8,10.4-10.6,19.3-19.3,25.9l35.3,25.5c18.5-18.1,30-43.4,30-71.4c0-6.9-0.7-13.6-2-20l0,0
	l0,0C197.9,80,100,80,100,80z"/>
</svg>
