<?xml version="1.0" encoding="utf-8"?>
<!-- Generator: Adobe Illustrator 22.1.0, SVG Export Plug-In . SVG Version: 6.00 Build 0)  -->
<svg version="1.1" id="图层_1" xmlns="http://www.w3.org/2000/svg" xmlns:xlink="http://www.w3.org/1999/xlink" x="0px" y="0px"
	 viewBox="0 0 200 200" style="enable-background:new 0 0 200 200;" xml:space="preserve">
<style type="text/css">
	.st0{fill:#666666;}
</style>
<path class="st0" d="M130.7,200H69.3C31.1,200,0,168.9,0,130.7V69.3C0,31.1,31.1,0,69.3,0h61.4C168.9,0,200,31.1,200,69.3v61.4
	C200,168.9,168.9,200,130.7,200z M69.3,15.8c-29.5,0-53.5,24-53.5,53.5v61.4c0,29.5,24,53.5,53.5,53.5h61.4
	c29.5,0,53.5-24,53.5-53.5V69.3c0-29.5-24-53.5-53.5-53.5C130.7,15.8,69.3,15.8,69.3,15.8z"/>
<path class="st0" d="M100,126.3c-4.4,0-7.9-3.5-7.9-7.9v-7.9c0-4.4,3.5-7.9,7.9-7.9c13.1,0,23.7-10.6,23.7-23.7S113.1,55.3,100,55.3
	S76.3,65.9,76.3,79c0,4.4-3.5,7.9-7.9,7.9s-7.9-3.5-7.9-7.9c0-21.8,17.7-39.5,39.5-39.5s39.5,17.7,39.5,39.5
	c0,19.1-13.6,35-31.6,38.7v0.8C107.9,122.8,104.4,126.3,100,126.3z"/>
<circle class="st0" cx="100" cy="150" r="10.5"/>
</svg>
