<?xml version="1.0" encoding="utf-8"?>
<!-- Generator: Adobe Illustrator 22.1.0, SVG Export Plug-In . SVG Version: 6.00 Build 0)  -->
<svg version="1.1" id="图层_1" xmlns="http://www.w3.org/2000/svg" xmlns:xlink="http://www.w3.org/1999/xlink" x="0px" y="0px"
	 viewBox="0 0 200 200" style="enable-background:new 0 0 200 200;" xml:space="preserve">
<style type="text/css">
	.st0{fill:#FFFFFF;}
</style>
<path class="st0" d="M133.6,91.8L88,65.4c-6.3-3.7-14.3,0.9-14.3,8.2v52.7c0,7.3,7.9,11.9,14.3,8.2l45.7-26.4
	C140,104.6,140,95.4,133.6,91.8z"/>
<path class="st0" d="M128.6,200H71.4C32,200,0,168,0,128.6V71.4C0,32,32,0,71.4,0h57.1C168,0,200,32,200,71.4v57.1
	C200,168,168,200,128.6,200z M71.4,28.6c-23.6,0-42.9,19.2-42.9,42.9v57.1c0,23.6,19.2,42.9,42.9,42.9h57.1
	c23.6,0,42.9-19.2,42.9-42.9V71.4c0-23.6-19.2-42.9-42.9-42.9H71.4V28.6z"/>
</svg>
