<?xml version="1.0" encoding="utf-8"?>
<!-- Generator: Adobe Illustrator 22.1.0, SVG Export Plug-In . SVG Version: 6.00 Build 0)  -->
<svg version="1.1" id="图层_1" xmlns="http://www.w3.org/2000/svg" xmlns:xlink="http://www.w3.org/1999/xlink" x="0px" y="0px"
	 viewBox="0 0 200 200" style="enable-background:new 0 0 200 200;" xml:space="preserve">
<style type="text/css">
	.st0{fill:#333333;}
</style>
<path class="st0" d="M0,128.5V71.3C0,31.9,32-0.1,71.4-0.1c7.9,0,14.3,6.4,14.3,14.3s-6.4,14.3-14.3,14.3
	c-23.6,0-42.9,19.2-42.9,42.9v57.1c0,23.6,19.2,42.9,42.9,42.9c7.9,0,14.3,6.4,14.3,14.3S79.3,200,71.4,200
	C32,199.9,0,167.9,0,128.5z"/>
<path class="st0" d="M128.5,126.3c0,7.3,7.9,11.9,14.3,8.2l45.7-26.4c6.3-3.7,6.3-12.8,0-16.5l-45.7-26.3
	c-6.3-3.7-14.3,0.9-14.3,8.2v12.1H71.4c-7.9,0-14.3,6.4-14.3,14.3s6.4,14.3,14.3,14.3h57.1V126.3z"/>
</svg>
