<?xml version="1.0" encoding="utf-8"?>
<!-- Generator: Adobe Illustrator 22.1.0, SVG Export Plug-In . SVG Version: 6.00 Build 0)  -->
<svg version="1.1" id="图层_1" xmlns="http://www.w3.org/2000/svg" xmlns:xlink="http://www.w3.org/1999/xlink" x="0px" y="0px"
	 viewBox="0 0 200 200" style="enable-background:new 0 0 200 200;" xml:space="preserve">
<path d="M128.6,196.6H71.4C32,196.6,0,164.6,0,125.2c0-7.9,6.4-14.3,14.3-14.3s14.3,6.4,14.3,14.3c0,23.6,19.2,42.9,42.9,42.9h57.1
	c23.6,0,42.9-19.2,42.9-42.9c0-7.9,6.4-14.3,14.3-14.3s14.3,6.4,14.3,14.3C200,164.6,168,196.6,128.6,196.6z"/>
<path d="M126.4,68.1c7.3,0,11.9-7.9,8.2-14.3L108.2,8.1c-3.7-6.3-12.8-6.3-16.5,0L65.4,53.8c-3.7,6.3,0.9,14.3,8.2,14.3l12.1,0v57.1
	c0,7.9,6.4,14.3,14.3,14.3s14.3-6.4,14.3-14.3V68.1L126.4,68.1z"/>
</svg>
