<?xml version="1.0" encoding="utf-8"?>
<!-- Generator: Adobe Illustrator 22.1.0, SVG Export Plug-In . SVG Version: 6.00 Build 0)  -->
<svg version="1.1" id="图层_1" xmlns="http://www.w3.org/2000/svg" xmlns:xlink="http://www.w3.org/1999/xlink" x="0px" y="0px"
	 viewBox="0 0 200 200" style="enable-background:new 0 0 200 200;" xml:space="preserve">
<g>
	<path d="M107.6,48.6c16.8-5.5,35.8-3.3,51.4,7.6c26.3,18.4,32.7,54.7,14.3,80.9l-26.7,38.1c-18.4,26.3-54.7,32.7-80.9,14.3
		l-19-13.3c26.3,18.4,62.5,12,80.9-14.3l0,0c0,0,0,0,0,0l26.7-38.1c11-15.8,7.2-37.5-8.6-48.6L107.6,48.6z"/>
	<path d="M41,143.8C14.7,125.4,8.3,89.1,26.7,62.9l26.7-38.1C71.7-1.5,108-7.9,134.3,10.5l19,13.3C127,5.4,90.8,11.8,72.4,38.1l0,0
		L45.7,76.2c-11,15.8-7.2,37.5,8.6,48.6l38.1,26.7C75.6,156.9,56.5,154.7,41,143.8z"/>
</g>
</svg>
