<?xml version="1.0" encoding="utf-8"?>
<!-- Generator: Adobe Illustrator 22.1.0, SVG Export Plug-In . SVG Version: 6.00 Build 0)  -->
<svg version="1.1" id="图层_1" xmlns="http://www.w3.org/2000/svg" xmlns:xlink="http://www.w3.org/1999/xlink" x="0px" y="0px"
	 viewBox="0 0 200 200" style="enable-background:new 0 0 200 200;" xml:space="preserve">
<style type="text/css">
	.st0{fill:#004FFF;}
</style>
<path class="st0" d="M71.5,187.8L71.5,187.8c-7,0-13.6-3-18.2-8.3L5.6,122.4c-4.1-4.8-6-11-5.5-17.4c0.6-6.4,3.6-12.1,8.6-16.2
	c4.7-4,10.9-6,17.3-5.4S38.1,87,42.2,92l29,34.7l86.6-105.8c8.3-10.1,23.4-11.6,33.5-3.4c10.2,8.3,11.7,23.3,3.4,33.5L89.9,179.1
	C85.2,184.7,78.5,187.8,71.5,187.8L71.5,187.8z"/>
</svg>
