<?xml version="1.0" encoding="utf-8"?>
<!-- Generator: Adobe Illustrator 22.1.0, SVG Export Plug-In . SVG Version: 6.00 Build 0)  -->
<svg version="1.1" id="图层_1" xmlns="http://www.w3.org/2000/svg" xmlns:xlink="http://www.w3.org/1999/xlink" x="0px" y="0px"
	 viewBox="0 0 200 200" style="enable-background:new 0 0 200 200;" xml:space="preserve">
<style type="text/css">
	.st0{fill:#EEEEEE;}
	.st1{fill:#CCCCCC;}
	.st2{fill:#FFFFFF;}
</style>
<path class="st0" d="M99.6,199L99.6,199c-55.2,0-100-44.8-100-100l0,0c0-55.2,44.8-100,100-100l0,0c55.2,0,100,44.8,100,100l0,0
	C199.6,154.2,154.8,199,99.6,199z"/>
<path class="st1" d="M96.1,159.6l-49.8-22.3c0-13.9,11.3-25.1,25.1-25.1h56.5c13.9,0,25.1,11.3,25.1,25.1L96.1,159.6z"/>
<path class="st2" d="M166.2,80c0-26.2-21.3-47.6-47.6-47.6h-38C54.4,32.4,33,53.8,33,80v19c0-26.3,21.3-47.6,47.6-47.6l0,0h38
	c15.7,0,28.5,12.8,28.5,28.5v38C158.7,109.3,166.2,95.5,166.2,80z"/>
<path class="st2" d="M52,80c-11.5,8.7-19,22.5-19,38c0,26.2,21.3,47.6,47.6,47.6h38c26.2,0,47.6-21.3,47.6-47.6V99
	c0,26.3-21.3,47.5-47.6,47.5l0,0l0,0h-38C64.8,146.6,52,133.8,52,118V80z"/>
<circle class="st1" cx="99.6" cy="67.7" r="31.3"/>
</svg>
