<?xml version="1.0" encoding="utf-8"?>
<!-- Generator: Adobe Illustrator 22.1.0, SVG Export Plug-In . SVG Version: 6.00 Build 0)  -->
<svg version="1.1" id="图层_1" xmlns="http://www.w3.org/2000/svg" xmlns:xlink="http://www.w3.org/1999/xlink" x="0px" y="0px"
	 viewBox="0 0 200 200" style="enable-background:new 0 0 200 200;" xml:space="preserve">
<path d="M54.9,181.3l-36.2-36.2c-24.9-24.9-24.9-65.4,0-90.3l36.2-36.2c24.9-24.9,65.4-24.9,90.3,0l36.1,36.1
	c25,25,25,65.4,0.1,90.4l-36.1,36.1C120.2,206.2,79.8,206.2,54.9,181.3z M127.1,36.8c-14.9-14.9-39.3-15-54.3,0L36.7,72.9
	c-14.9,14.9-15,39.3,0,54.3l36.1,36.1c14.9,14.9,39.3,15,54.3,0l36.2-36.2c14.9-14.9,15-39.3,0-54.3L127.1,36.8L127.1,36.8z"/>
<path d="M112.7,106.5c0,7-5.7,12.7-12.7,12.7s-12.7-5.7-12.7-12.7V55.3c0-7,5.7-12.7,12.7-12.7s12.7,5.8,12.7,12.8V106.5z"/>
<circle cx="100" cy="144.7" r="12.7"/>
</svg>
