<svg id="curify_logo" data-name="curify_logo" xmlns="http://www.w3.org/2000/svg" viewBox="0 0 435.27 105"><defs><style>.cls-1{fill:#222;}.cls-2{fill:#5700ff;}.cls-3{fill:#004fff;}</style></defs><title>logo</title><path class="cls-1" d="M224.15,105.16c-1.34,0-2.85-.07-4.52-.2a21.69,21.69,0,0,1-4.53-.81l2-13a25.31,25.31,0,0,0,6.14.7,9.27,9.27,0,0,0,6.44-2.26,12.88,12.88,0,0,0,3.62-5.69l.7-2.21L213.29,31.83h16.4L239.85,61.7a58.5,58.5,0,0,1,2.21,8.35,56,56,0,0,1,2.21-8.35l10.16-29.87h16.1L247.39,87.46a35.76,35.76,0,0,1-8.65,12.82Q233.4,105.16,224.15,105.16Z" transform="translate(164.74 -0.18)"/><path class="cls-1" d="M183.92,84.14V43.4h-7.34V31.83h7.34V28.31q0-7.95,4.73-12.78t12.67-4.83H207V22.27h-3.52q-5.93,0-5.93,6.24v3.32h10.66V43.4H197.5V84.14Z" transform="translate(164.74 -0.18)"/><path class="cls-1" d="M72.87,85.34a19.94,19.94,0,0,1-10.16-2.61,18.61,18.61,0,0,1-7.15-7.5A23.81,23.81,0,0,1,53,63.82v-32H66.53V60.5q0,6.73,2.71,9.85c1.81,2.08,4.4,3.12,7.75,3.12a10.66,10.66,0,0,0,7.59-3.12q3.27-3.1,3.27-9.85V31.83h13.58V84.14H88.26V76.29a14.17,14.17,0,0,1-5.59,6.79Q79,85.35,72.87,85.34Z" transform="translate(164.74 -0.18)"/><path class="cls-1" d="M114.51,84.14V31.83h13.18v10a14.19,14.19,0,0,1,5.33-8.6q4-3,10.86-2.57V43.4H142a14,14,0,0,0-9.86,3.72q-4,3.72-4,10.26V84.14Z" transform="translate(164.74 -0.18)"/><rect class="cls-1" x="318.18" y="31.65" width="13.58" height="52.31"/><path class="cls-1" d="M160.18,27.5a7.91,7.91,0,0,1-5.79-2.36A7.78,7.78,0,0,1,152,19.45a7.66,7.66,0,0,1,2.36-5.58,7.91,7.91,0,0,1,5.79-2.36A7.82,7.82,0,0,1,166,13.87a7.74,7.74,0,0,1,2.32,5.58A7.8,7.8,0,0,1,166,25.19,7.9,7.9,0,0,1,160.18,27.5Z" transform="translate(164.74 -0.18)"/><path class="cls-1" d="M17,85.44A37.24,37.24,0,0,1,2.5,82.63,35.87,35.87,0,0,1-9.17,74.78a36.27,36.27,0,0,1-7.74-11.62A36,36,0,0,1-19.68,49,37.7,37.7,0,0,1-17,34.84,35.58,35.58,0,0,1-9.47,23.18a35.06,35.06,0,0,1,11.62-7.9A37.69,37.69,0,0,1,17,12.41a36.82,36.82,0,0,1,14.84,2.72,29.81,29.81,0,0,1,10.91,8.35l-10,8.65A20.92,20.92,0,0,0,17,25.49,21.06,21.06,0,0,0,5.32,28.71a21.82,21.82,0,0,0-7.7,8.55A25.55,25.55,0,0,0-5.09,49,25.25,25.25,0,0,0-2.38,60.75,21.37,21.37,0,0,0,5.37,69.2a22,22,0,0,0,12,3.17,22.44,22.44,0,0,0,9.05-1.71,20.54,20.54,0,0,0,7-5.13L43.7,74.28a30.9,30.9,0,0,1-10.72,8A36.82,36.82,0,0,1,17,85.44Z" transform="translate(164.74 -0.18)"/><path class="cls-2" d="M-149.74,37.68a37.43,37.43,0,0,0-15,30,37.54,37.54,0,0,0,37.5,37.5h30a37.54,37.54,0,0,0,37.5-37.5v-15a37.5,37.5,0,0,1-37.5,37.5h-30a22.53,22.53,0,0,1-22.5-22.5Z" transform="translate(164.74 -0.18)"/><path class="cls-1" d="M-94.59,48.35l-24-13.84a5,5,0,0,0-7.5,4.33V66.52a5,5,0,0,0,7.5,4.33l24-13.84A5,5,0,0,0-94.59,48.35Z" transform="translate(164.74 -0.18)"/><path class="cls-3" d="M-59.74,37.68A37.54,37.54,0,0,0-97.24.18h-30a37.54,37.54,0,0,0-37.5,37.5v15a37.5,37.5,0,0,1,37.5-37.5h30a22.53,22.53,0,0,1,22.5,22.5v30A37.47,37.47,0,0,0-59.74,37.68Z" transform="translate(164.74 -0.18)"/></svg>